<?xml version="1.0" encoding="UTF-8"?>
<svg width="640" height="480" xmlns="http://www.w3.org/2000/svg" xmlns:svg="http://www.w3.org/2000/svg">
 <!-- Created with SVG-edit - http://svg-edit.googlecode.com/ -->
 <title>VCKlogo</title>
 <g>
  <title>Layer 1</title>
  <rect stroke="#000000" id="svg_4" height="254.999994" width="410.000016" y="131.000001" x="125.999987" stroke-width="5" fill="#007fff"/>
  <text stroke="#000000" transform="rotate(-5.9671630859375 278.53500366210966,174.79747009277398) matrix(7.830409526824951,0,0,2.9692306518554688,-1780.4956583753228,-375.5076699256897) " xml:space="preserve" text-anchor="middle" font-family="serif" font-size="24" id="svg_12" y="193.445595" x="262.807319" stroke-linecap="null" stroke-linejoin="null" stroke-dasharray="null" stroke-width="0" fill="#000000">vck</text>
  <text stroke="#000000" transform="matrix(14.212298393249512,0,0,1.8615384101867676,-5064.8520121872425,-214.2403718456626) " xml:space="preserve" text-anchor="middle" font-family="serif" font-size="24" id="svg_13" y="273" x="378" stroke-linecap="null" stroke-linejoin="null" stroke-dasharray="null" stroke-width="0" fill="#000000"/>
  <rect stroke="#000000" id="svg_15" height="128.999999" width="264.999992" y="217" x="132" stroke-linecap="null" stroke-linejoin="null" stroke-dasharray="null" stroke-width="5" fill="#ff7f00"/>
  <text stroke="#000000" transform="matrix(4.412935535887452,0,0,2.6061170095670145,-1035.9833674801735,-441.66602532207173) " xml:space="preserve" text-anchor="middle" font-family="serif" font-size="24" id="svg_16" y="284" x="294" stroke-linecap="null" stroke-linejoin="null" stroke-dasharray="null" stroke-width="0" fill="#000000">styles</text>
  <path stroke="#000000" id="svg_24" d="m533.350934,327.343592l-17.463718,0.703148l-4.672295,17.131929l-15.449686,-4.141864l-22.405723,13.145913l-8.530506,-7.671861l-71.849863,32.80828l39.921403,-36.588214l-33.159958,-4.756651l10.376323,-7.077163l-22.766331,-12.989274l16.361173,-3.141274l-5.144551,-17.097883l17.151455,1.791945l14.110582,-15.778043l12.496284,6.156237l28.885701,-9.448783l3.873624,8.565965l34.489828,-0.119604l-5.978886,8.256061l29.14366,9.24755l-13.933128,5.324912l14.544612,15.678675l0,-0.000001z" stroke-linecap="null" stroke-linejoin="null" stroke-dasharray="null" stroke-width="5" fill="#ff0000"/>
  <path stroke="#000000" id="svg_28" d="m458.580866,239.98061c-8.492132,-0.97824 -13.077351,-10.122663 -4.591971,-13.472418c8.845802,-3.302901 14.106764,8.455304 4.444362,9.604587c-5.290844,1.436364 6.869311,3.841739 9.135749,1.426506c7.081818,-2.483966 5.987852,-8.949009 4.284003,-13.502145c-0.591304,-3.488152 -1.330765,-7.222524 -7.403956,-5.240095c-14.652073,0.854278 -26.252115,-9.917406 -25.086949,-19.994279c0.395578,-9.504731 11.139135,-16.014679 19.094475,-22.615026c-2.611757,-8.634905 -3.400353,-18.610588 4.170882,-26.135249c6.973988,-6.116722 10.513817,5.076381 11.693497,8.874499c2.620371,8.878096 -2.604429,18.207564 -11.298404,24.46587c0.830143,2.968564 1.646935,5.939112 2.492931,8.905329c9.187338,-1.285406 17.957075,4.3403 18.458178,10.929755c1.419589,5.950378 -3.847065,11.569759 -11.040781,14.127061c-0.118289,5.109662 3.777838,10.40991 2.377906,15.686374c-1.344428,5.455392 -9.787162,8.130562 -16.729917,6.939229l-0.000004,0l-0.000001,0.000002zm9.591271,-23.279622c2.602921,-3.540729 -2.118412,-9.793911 -2.377633,-14.338875c0.10195,-7.925447 -11.498999,1.535238 -8.049128,5.427239c1.022648,2.302991 9.899039,6.526316 1.745371,3.921624c-8.512646,-3.692048 -8.122747,-13.191497 -0.344633,-17.202449c6.52556,-1.047461 2.539995,-7.357773 1.310418,-9.430485c-8.014776,5.293141 -17.099179,11.958266 -15.716945,20.525257c1.041189,8.029801 13.120747,12.90094 23.43255,11.097693l0,-0.000003l0,-0.000001zm5.392684,-1.532694c7.644202,-3.556178 7.393331,-12.889113 -0.969981,-15.783751c-8.923698,-3.41699 -2.811534,5.534949 -2.648025,8.942374c1.238426,1.304406 0.536907,8.905027 3.618006,6.841377zm-9.421061,-42.780181c4.702152,-4.122092 10.07722,-10.073121 6.774923,-15.523073c-7.111478,-3.401785 -11.063382,5.795416 -11.238278,9.822669c-0.064698,2.611361 -0.595751,11.612277 4.463359,5.700404l0,0l-0.000004,0z" stroke-linecap="null" stroke-linejoin="null" stroke-dasharray="null" stroke-width="0" fill="#000000"/>
  <path stroke="#aa9d9d" id="svg_29" d="m494.574662,217.206615c0,1.281404 -0.983698,2.319564 -2.197888,2.319564l-14.074678,0c-1.214184,0 -2.197884,-1.038157 -2.197884,-2.319564l0,-31.557598c0,-1.281305 0.983698,-2.319564 2.197884,-2.319564l14.074678,0c1.21419,0 2.197888,1.03826 2.197888,2.319564l0,31.557598zm-52.108347,0c0,1.281404 -0.983891,2.319564 -2.197888,2.319564l-14.074868,0c-1.213996,0 -2.197884,-1.038157 -2.197884,-2.319564l0,-31.557598c0,-1.281305 0.983888,-2.319564 2.197884,-2.319564l14.074868,0c1.213996,0 2.197888,1.03826 2.197888,2.319564l0,31.557598zm17.004117,-85.571677c-25.468839,0 -46.143634,21.622078 -46.461148,48.418909l8.063224,0c0.261459,-22.147875 17.349751,-40.017878 38.397924,-40.017878c21.04817,0 38.136471,17.870003 38.394874,40.017878l8.063036,0c-0.31428,-26.796831 -20.995156,-48.418909 -46.457913,-48.418909l0.000003,0zm-46.395782,72.965064l7.916912,0l0,-24.595484l-7.916912,0l0,24.595484zm84.7253,-24.598795l0,24.595589l8.209339,0l0,-24.595589l-8.209339,0z" stroke-linecap="null" stroke-linejoin="null" stroke-dasharray="null" stroke-width="0" fill="#000000"/>
 </g>
</svg>