<?xml version="1.0" encoding="UTF-8"?>
<svg width="250" height="150" xmlns="http://www.w3.org/2000/svg" xmlns:svg="http://www.w3.org/2000/svg">
 <!-- Created with SVG-edit - http://svg-edit.googlecode.com/ -->
 <title>VCKlogo</title>
 <g>
  <title>Layer 1</title>
  <rect stroke="#000000" id="svg_4" height="143.000011" width="244.000023" y="3.99999" x="3.000001" stroke-width="5" fill="#007fff"/>
  <text stroke="#000000" transform="rotate(-5.9671630859375 70.31017303466808,31.1832237243652) matrix(3.9999505746021096,0,0,1.5154247014997964,-910.3026920062404,-177.57517197748555) " xml:space="preserve" text-anchor="middle" font-family="serif" font-size="24" id="svg_12" y="145.860666" x="245.008546" stroke-linecap="null" stroke-linejoin="null" stroke-dasharray="null" stroke-width="0" fill="#000000">vck</text>
  <text stroke="#000000" transform="matrix(14.212298393249512,0,0,1.8615384101867676,-5064.8520121872425,-214.2403718456626) " xml:space="preserve" text-anchor="middle" font-family="serif" font-size="24" id="svg_13" y="273" x="378" stroke-linecap="null" stroke-linejoin="null" stroke-dasharray="null" stroke-width="0" fill="#000000"/>
  <rect stroke="#000000" id="svg_15" height="81" width="184.000002" y="54" x="8.999997" stroke-linecap="null" stroke-linejoin="null" stroke-dasharray="null" stroke-width="5" fill="#ff7f00"/>
  <text style="cursor: move;" stroke="#000000" transform="matrix(3.2704026482819777,0,0,1.8148661428563357,-740.442524673816,-270.0542683770298) " xml:space="preserve" text-anchor="middle" font-family="serif" font-size="24" id="svg_16" y="203.095077" x="258.026944" stroke-linecap="null" stroke-linejoin="null" stroke-dasharray="null" stroke-width="0" fill="#000000">styles</text>
  <path stroke="#000000" id="svg_24" d="m241.350925,110.341114l-6.100363,0.283801l-1.632112,6.914675l-5.396829,-1.67171l-7.826693,5.305864l-2.979845,-3.096465l-25.09835,13.241859l13.94521,-14.767493l-11.583323,-1.919847l3.62462,-2.856436l-7.952656,-5.242643l5.715228,-1.267862l-1.797077,-6.900932l5.991289,0.723251l4.929059,-6.368227l4.365158,2.484741l10.090254,-3.813658l1.353123,3.45734l12.047869,-0.048272l-2.088525,3.332256l10.180363,3.732434l-4.867073,2.149205l5.080673,6.32812l0,0z" stroke-linecap="null" stroke-linejoin="null" stroke-dasharray="null" stroke-width="5" fill="#ff0000"/>
  <path stroke="#000000" id="svg_28" d="m214.277677,87.09905c-5.278598,-0.563551 -8.128708,-5.831532 -2.854306,-7.761285c5.498428,-1.902757 8.768569,4.870993 2.762553,5.533079c-3.28872,0.827468 4.269869,2.213176 5.678657,0.821794c4.401956,-1.430983 3.721966,-5.155407 2.662876,-7.778412c-0.367544,-2.009478 -0.827188,-4.160799 -4.6022,-3.018753c-9.107526,0.49214 -16.317952,-5.713284 -15.593705,-11.518437c0.245887,-5.475556 6.923937,-9.225847 11.868867,-13.028223c-1.623434,-4.974459 -2.113611,-10.721317 2.592562,-15.056175c4.334937,-3.523762 6.535247,2.924436 7.268519,5.112483c1.628786,5.114557 -1.618878,10.489137 -7.022937,14.094467c0.51601,1.710149 1.023715,3.421443 1.549571,5.130244c5.710725,-0.740508 11.161875,2.50039 11.473352,6.296486c0.882398,3.427936 -2.39128,6.665187 -6.862798,8.138414c-0.073527,2.943614 2.348254,5.997013 1.478076,9.036718c-0.835679,3.142779 -6.083565,4.683909 -10.399089,3.9976l0,0l0,0zm5.961802,-13.411084c1.617939,-2.039768 -1.316775,-5.642143 -1.477908,-8.260441c0.063371,-4.565742 -7.147621,0.884432 -5.003223,3.126562c0.635659,1.326722 6.153108,3.759727 1.084898,2.2592c-5.291347,-2.126942 -5.04899,-7.59945 -0.214224,-9.910106c4.056199,-0.603428 1.578829,-4.238721 0.814539,-5.432782c-4.981871,3.049309 -10.628616,6.889003 -9.769435,11.824333c0.647189,4.625863 8.155672,7.432063 14.565352,6.393234l0,0l0,0zm3.352016,-0.882968c4.75153,-2.048663 4.595593,-7.425247 -0.602926,-9.092812c-5.54685,-1.968483 -1.747609,3.188612 -1.645979,5.151588c0.769791,0.751448 0.333736,5.130065 2.248905,3.941224zm-5.856002,-24.645101c2.922792,-2.374682 6.263862,-5.802993 4.211197,-8.942637c-4.420392,-1.959721 -6.876845,3.338666 -6.985555,5.658712c-0.040217,1.50437 -0.370316,6.689682 2.774357,3.283926l0,0l0,0z" stroke-linecap="null" stroke-linejoin="null" stroke-dasharray="null" stroke-width="0" fill="#000000"/>
  <path stroke="#aa9d9d" id="svg_29" d="m235.492774,65.866393c0,0.916923 -0.560603,1.659786 -1.252561,1.659786l-8.021048,0c-0.691958,0 -1.252561,-0.742863 -1.252561,-1.659786l0,-22.581271c0,-0.916851 0.560603,-1.659786 1.252561,-1.659786l8.021048,0c0.691958,0 1.252561,0.742935 1.252561,1.659786l0,22.581271zm-29.69615,0c0,0.916923 -0.560717,1.659786 -1.252561,1.659786l-8.021162,0c-0.691849,0 -1.252555,-0.742863 -1.252555,-1.659786l0,-22.581271c0,-0.916851 0.560706,-1.659786 1.252555,-1.659786l8.021162,0c0.691844,0 1.252561,0.742935 1.252561,1.659786l0,22.581271zm9.690514,-61.231452c-14.5145,0 -26.296907,15.471842 -26.477859,34.646515l4.595174,0c0.149004,-15.848082 9.887492,-28.635095 21.882685,-28.635095c11.995194,0 21.733687,12.787013 21.880953,28.635095l4.59506,0c-0.179106,-19.174673 -11.964978,-34.646515 -26.476013,-34.646515l0,0zm-26.440605,52.210697l4.511787,0l0,-17.599481l-4.511787,0l0,17.599481zm48.28431,-17.601849l0,17.599559l4.678441,0l0,-17.599559l-4.678441,0z" stroke-linecap="null" stroke-linejoin="null" stroke-dasharray="null" stroke-width="0" fill="#000000"/>
 </g>
</svg>